<svg height="363pt" viewBox="0 0 363.35601 363" width="363pt" xmlns="http://www.w3.org/2000/svg" xmlns:xlink="http://www.w3.org/1999/xlink"><linearGradient id="a" gradientUnits="userSpaceOnUse" x1="181.683163" x2="181.683163" y1="383.602855" y2="-62.676145"><stop offset=".322" stop-color="#a163f5"/><stop offset=".466" stop-color="#b074ee"/><stop offset=".752" stop-color="#d8a1dd"/><stop offset=".898" stop-color="#efbad3"/></linearGradient><path d="m321.632812 14.804688c-19.535156-19.5-51.167968-19.5-70.703124 0l-17.699219 17.796874-188.398438 188.300782-.402343.402344c-.097657.097656-.097657.199218-.199219.199218-.199219.300782-.5.597656-.699219.898438 0 .101562-.101562.101562-.101562.199218-.199219.300782-.296876.5-.5.800782-.097657.101562-.097657.199218-.199219.300781-.097657.300781-.199219.5-.300781.800781 0 .097656-.097657.097656-.097657.199219l-41.800781 125.699219c-1.226562 3.578125-.292969 7.542968 2.398438 10.199218 1.894531 1.867188 4.445312 2.910157 7.101562 2.902344 1.085938-.019531 2.160156-.1875 3.199219-.5l125.601562-41.902344c.097657 0 .097657 0 .199219-.097656.316406-.09375.621094-.226562.898438-.402344.078124-.007812.148437-.042968.203124-.097656.296876-.199218.699219-.402344 1-.601562.296876-.199219.597657-.5.898438-.699219.101562-.101563.199219-.101563.199219-.199219.101562-.101562.300781-.199218.402343-.402344l206.097657-206.097656c19.5-19.535156 19.5-51.167968 0-70.699218zm-186 282.796874-69.601562-69.597656 174.199219-174.199218 69.601562 69.597656zm-79.402343-51.097656 60.800781 60.800782-91.300781 30.398437zm278.402343-148-10.601562 10.699219-69.601562-69.601563 10.703124-10.699218c11.710938-11.699219 30.6875-11.699219 42.398438 0l27.199219 27.199218c11.621093 11.761719 11.578125 30.695313-.097657 42.402344zm0 0" fill="url(#a)"/></svg>