<svg width="512" height="512" viewBox="0 0 512 512" fill="none" xmlns="http://www.w3.org/2000/svg">
<path d="M256 496C388.548 496 496 388.548 496 256C496 123.452 388.548 16 256 16C123.452 16 16 123.452 16 256C16 388.548 123.452 496 256 496Z" fill="url(#paint0_linear)"/>
<path d="M256 461C369.218 461 461 369.218 461 256C461 142.782 369.218 51 256 51C142.782 51 51 142.782 51 256C51 369.218 142.782 461 256 461Z" fill="#22202E"/>
<g clip-path="url(#clip0)">
<path d="M349.212 144.979C336.201 131.991 315.133 131.991 302.123 144.979L290.335 156.832L164.859 282.242L164.591 282.51C164.526 282.575 164.526 282.643 164.458 282.643C164.325 282.843 164.125 283.041 163.992 283.241C163.992 283.309 163.925 283.309 163.925 283.374C163.792 283.574 163.727 283.707 163.592 283.908C163.527 283.975 163.527 284.04 163.459 284.108C163.394 284.308 163.326 284.441 163.259 284.641C163.259 284.706 163.194 284.706 163.194 284.774L135.354 368.491C134.537 370.874 135.159 373.515 136.951 375.284C138.213 376.528 139.912 377.222 141.681 377.217C142.404 377.204 143.12 377.092 143.812 376.884L227.464 348.976C227.529 348.976 227.529 348.976 227.597 348.911C227.807 348.849 228.01 348.761 228.195 348.643C228.247 348.638 228.294 348.615 228.33 348.578C228.528 348.446 228.796 348.31 228.996 348.178C229.194 348.045 229.394 347.845 229.595 347.712C229.662 347.644 229.727 347.644 229.727 347.579C229.795 347.512 229.928 347.447 229.995 347.311L367.259 210.048C380.246 197.037 380.246 175.969 367.259 162.961L349.212 144.979ZM225.333 333.325L178.978 286.972L294.997 170.953L341.352 217.306L225.333 333.325ZM172.45 299.293L212.944 339.788L152.137 360.033L172.45 299.293ZM357.87 200.723L350.809 207.849L304.454 161.494L311.582 154.368C319.382 146.576 332.02 146.576 339.82 154.368L357.935 172.483C365.675 180.316 365.646 192.926 357.87 200.723Z" fill="url(#paint1_linear)"/>
</g>
<defs>
<linearGradient id="paint0_linear" x1="256" y1="16" x2="256" y2="496" gradientUnits="userSpaceOnUse">
<stop stop-color="#AD00FF"/>
<stop offset="1" stop-color="#CC00FF"/>
</linearGradient>
<linearGradient id="paint1_linear" x1="256.003" y1="390.603" x2="256.003" y2="93.3754" gradientUnits="userSpaceOnUse">
<stop offset="0.322" stop-color="#A163F5"/>
<stop offset="0.466" stop-color="#B074EE"/>
<stop offset="0.752" stop-color="#D8A1DD"/>
<stop offset="0.898" stop-color="#EFBAD3"/>
</linearGradient>
<clipPath id="clip0">
<rect width="242" height="242" fill="white" transform="translate(135 135)"/>
</clipPath>
</defs>
</svg>
